<svg stroke-miterlimit="10" style="fill-rule:nonzero;clip-rule:evenodd;stroke-linecap:round;stroke-linejoin:round" viewBox="0 0 512 512" xml:space="preserve" xmlns="http://www.w3.org/2000/svg"><path d="M357.922 368.561H96.402c-4.48 0-8.399 3.922-8.399 8.398V415.6c0 4.481 3.922 8.399 8.399 8.399h261.52c4.48 0 8.398-3.922 8.398-8.399v-38.641c.004-4.476-3.918-8.398-8.394-8.398h-.004Zm-8.403 38.641h-244.72v-21.84h244.72v21.84Zm-52.641-165.76c4.481 0 8.399-3.922 8.399-8.398l.004-97.441c0-4.481-3.922-8.399-8.399-8.399h-140c-4.48 0-8.398 3.922-8.398 8.399v97.441c0 4.48 3.922 8.398 8.398 8.398h139.996Zm-131.04-97.441h123.2v80.641h-123.2v-80.641Zm208.32-52.078-1.121-1.121c-3.922-2.801-8.961-1.68-11.762 1.68-2.8 3.921-1.679 8.96 1.68 11.762l1.121 1.121c12.32 8.961 22.398 20.719 29.121 34.16h-1.68c-14.559 0-26.32 11.762-26.32 26.32s11.762 26.32 26.32 26.32c5.602 0 10.641-1.68 15.121-5.039v134.96c0 7.281-6.16 13.441-13.441 13.441-7.28 0-13.441-6.16-13.441-13.441l.004-64.406c0-22.961-16.801-42.559-38.641-46.48V96.4c0-4.48-3.922-8.399-8.398-8.399h-211.12c-4.481 0-8.398 3.922-8.398 8.399v260.96h16.801L130 104.8h194.88v252.56h16.801v-128.8c12.879 3.922 21.84 15.121 21.84 29.121v63.84c0 16.801 13.441 30.238 30.238 30.238 16.801 0 30.238-13.441 30.238-30.238v-128.8c.004-39.758-18.477-77.277-49.836-100.8l-.003.002Zm17.918 82.879c-5.039 0-9.519-3.922-9.519-9.52 0-5.601 3.922-9.519 9.519-9.519 5.602 0 9.52 3.922 9.52 9.519.004 5.598-4.477 9.52-9.52 9.52Z"/></svg>